<?xml version="1.0" encoding="utf-8"?>
<!-- Generator: Adobe Illustrator 27.1.1, SVG Export Plug-In . SVG Version: 6.00 Build 0)  -->
<svg version="1.1" id="Layer_1" xmlns="http://www.w3.org/2000/svg" xmlns:xlink="http://www.w3.org/1999/xlink" x="0px" y="0px"
	 viewBox="0 0 512 512" style="enable-background:new 0 0 512 512;" xml:space="preserve">
<style type="text/css">
	.st0{fill-rule:evenodd;clip-rule:evenodd;}
</style>
<g>
	<path class="st0" d="M345.5,238.41c-4.4,0-8.29,1.77-10.5,4.51l-4.74,31.98c1.69,0.49,3.73,0.65,6.6,0.65
		c10.66,0,18.8-7.08,18.8-23.14C355.67,242.26,352.61,238.41,345.5,238.41z M55.03,238.41c-10.24,0-15.94,9.92-15.94,23.2
		c0,9.61,2.85,13.93,11.07,13.93c9.23,0,16.28-8.48,16.28-23.05C66.44,243.05,63.75,238.41,55.03,238.41L55.03,238.41z
		 M441.65,260.83c0,10.01,3.77,12.75,10,12.75c3.61,0,6.89-1.29,9.18-3.71l4.27-32.29c-2.13-0.97-4.27-1.13-6.89-1.13
		C448.2,236.45,441.65,244.85,441.65,260.83z"/>
	<path class="st0" d="M474.56,290.42c-6.22,0-10.48-2.62-10.48-9.49c0-0.33,0.16-1.79,0.32-2.62c-3.93,8.84-12.27,11.95-20.94,11.95
		c-15.23,0-24.06-6.71-24.06-25.53c0-28.31,15.22-43.03,34.04-43.03c7.03,0,11.46,0.98,14.24,3.11l3.1-22.74
		c1.32-10.31,4.75-12.76,12.93-12.76c4.58,0,9.16,1.15,11.94,3.28l-9.49,68.39c-0.81,5.73-0.98,8.68-0.98,10.64
		c0,1.63,0.49,2.78,2.94,2.78c1.48,0,4.09-0.17,5.89-0.66c1.8,1.47,2.46,3.1,2.46,5.57C496.49,286.83,488.14,290.42,474.56,290.42
		L474.56,290.42z M395.51,290.26c-8.02,0-12.77-3.11-12.77-10.15c0-2.78,0.49-7.36,0.98-10.8l5.56-31.91l-7.52,0.16
		c-1.32-1.64-1.64-3.76-1.64-5.89c0-7.2,6.38-9.83,20.94-9.83c10.8,0,13.1,3.11,12.12,9.82l-3.77,25.53
		c-1.15,7.53-2.29,12.76-2.29,14.89c0,1.15,0.5,2.29,2.46,2.29c1.47,0,4.09-0.17,6.06-0.66c1.8,1.31,2.61,3.27,2.61,5.4
		C418.24,286.82,411.38,290.26,395.51,290.26z M409.9,189.63c7.7,0,11.13,4.42,11.13,10.48c0,7.19-5.07,12.11-13.58,12.11
		c-6.06,0-11.45-2.14-11.45-10.15C395.99,195.02,401.23,189.62,409.9,189.63L409.9,189.63z M335.2,289.43c-1.81,0-5.08,0-6.55-0.16
		l-4.26,32.07c-3.1,1.15-8.18,1.31-11.61,1.31c-7.2,0-10.64-2.94-10.64-9.16c0-1.8,0.49-4.91,1.15-9.33l8.84-66.76l-7.53,0.17
		c-1.15-1.64-1.48-3.76-1.48-5.89c0-7.2,6.38-9.83,20.95-9.83c9.49,0,12.11,2.13,11.29,7.54l-0.98,6.05
		c4.42-11.46,12.1-13.91,20.61-13.91c15.87,0,22.91,9.49,22.91,27.17C377.9,274.38,361.22,289.43,335.2,289.43z M280.7,290.41
		c-8.01,0-11.45-2.46-10.31-10.14l0.49-3.27c-4.75,8.67-11.79,13.26-25.36,13.26c-11.62,0-18.17-4.75-18.17-15.38
		c0-4.58,0.33-7.53,1.81-15.22l4.09-22.26l-7.53,0.16c-1.31-1.64-1.64-3.76-1.64-5.89c0-7.2,6.38-9.83,20.95-9.83
		c10.79,0,13.26,3.11,12.11,9.82l-4.1,25.53c-0.82,4.58-1.64,9.98-1.64,12.76c0,3.27,1.81,4.42,6.23,4.42c4.58,0,9.49-2.12,12.6-7.2
		l4.42-32.73c1.31-10.31,3.76-12.93,11.94-12.93c4.58,0,9.82,1.14,12.6,3.27l-5.23,38.94c-0.32,2.78-0.82,5.73-0.82,8.51
		c0,1.14,0.66,2.12,2.62,2.12c1.47,0,3.76-0.17,5.72-0.66c1.8,1.31,2.62,3.44,2.62,5.57C304.1,286.97,296.58,290.41,280.7,290.41z
		 M218.2,239.37c-3.76-1.15-7.69-1.8-13.74-1.8c-11.79,0-18.5,6.87-18.5,21.6c0,10.8,3.28,14.73,11.94,14.73
		c4.92,0,10.64-1.15,16.86-3.44c2.29,1.15,3.44,4.42,3.44,6.87c0,8.35-7.53,13.26-26.02,13.26c-19.8,0-30.44-8.02-30.44-28.81
		c0-25.86,15.71-40.42,40.42-40.42c15.54,0,19.31,4.75,19.31,10.96C221.47,235.76,220.32,237.73,218.2,239.37L218.2,239.37z
		 M138.7,290.25c-6.38,0-8.67-2.29-12.11-9.66l-10.96-22.42l-4.1,30.77c-3.11,1.15-8.18,1.31-11.62,1.31
		c-7.19,0-10.47-2.94-10.47-9.16c0-1.8,0.32-4.9,0.97-9.32l9.16-69.71c1.32-10.31,4.75-12.76,12.94-12.76
		c4.58,0,9.16,1.15,11.94,3.28l-7.69,57.6c19.48-27,21.27-28.64,31.09-28.64c10.31,0,13.91,2.95,13.91,8.84
		c0,3.43-0.98,5.72-2.62,7.53c-2.46-0.16-4.91-0.16-6.87-0.16c-3.44,0-5.4,0.82-15.05,14.07l11.12,20.13
		c0.82,1.31,1.64,2.46,3.44,2.46c1.47,0,3.93-0.17,5.89-0.66c1.64,1.15,2.29,3.44,2.29,5.57
		C159.97,286.97,152.28,290.25,138.7,290.25L138.7,290.25z M46.44,290.58c-18.65,0-30.93-8.19-30.93-28.96
		c0-24.22,14.73-40.42,40.1-40.42c23.72,0,32.07,11.79,32.07,29.3C87.68,275.2,72.63,290.58,46.44,290.58z M503.65,261.84
		l-1.98-1.62L512,185.82l-7.1-5.45c-7.32-5.62-16.5-6.45-21.31-6.45c-16.49,0-25.97,8.81-28.19,26.2l-0.85,6.21
		c-6.94-0.16-13.83,1.21-20.17,4.02c1.21-3.13,1.89-6.56,1.89-10.25c0-15.22-10.9-25.86-26.51-25.86
		c-16.69,0-29.29,11.96-29.29,27.82c0,2.46,0.28,4.77,0.81,6.95c-1.91,0.65-3.74,1.5-5.45,2.56c-5.75-3.52-12.78-5.42-20.98-5.42
		c-6.26,0-11.5,1.12-15.88,2.96c-4.9-2.25-10.37-2.64-15.05-2.64c-9.12,0-15.64,0.95-20.87,3.01c-6.5-2.92-13.43-3.33-16.59-3.33
		c-9.67,0-15.83,3.26-19.8,7.57c-6.33-6.47-15.38-7.25-21.77-7.25c-9.85,0-16.67,1.09-22.09,3.51c-4.98-2.41-11.67-3.99-20.78-3.99
		c-12.13,0-22.68,2.85-31.28,8c-4.24-4.38-11.28-7.83-23.01-7.83c-3.72,0-6.93,0.33-9.84,1.1l1.69-12.65l1.18-8.82l-7.07-5.42
		c-7.33-5.62-16.5-6.45-21.31-6.45c-16.49,0-25.97,8.81-28.19,26.2l-1.56,11.79c-7.29-3.97-16.39-6.09-27.17-6.09
		C22.29,205.83,0,228.25,0,261.63c0,27.76,17.31,44.34,46.31,44.34c12.92,0,24.13-3.08,33.08-8.7c4.5,5.32,11.57,8.37,20.4,8.37
		c7.37,0,12.76-0.72,16.95-2.26l6.18-2.28c3.87,2.79,8.87,4.54,15.65,4.54c12.29,0,20.5-2.54,25.97-6.14
		c7.19,4.26,16.41,6.48,27.5,6.48c12.23,0,22.05-3.18,29.36-8.09c5.32,4.7,13.11,7.76,23.98,7.76c7.48,0,14-1.15,19.66-3.5
		c6.12,3.66,12.89,3.66,15.52,3.66c2.44,0,4.69-0.11,6.84-0.28c-0.48,3.27-0.79,5.72-0.79,7.97c0,12.22,8.06,23.77,26.02,24.54
		c13.49,0.57,25.65-5.48,25.65-5.48l3.72-28.04c11.37-1.04,21.27-4.65,29.29-10.34c4.31,6.66,12.17,11.47,24.08,11.47
		c10.55,0,18.2-1.35,24.11-4.25c0.63-0.32,1.19-0.69,1.78-1.02c5.97,3.44,13.35,5.27,22.07,5.27c6.24,0,11.97-1.13,16.98-3.27
		c3.93,2.22,8.71,3.44,14.11,3.44c34.62,0,37.3-20.29,37.3-26.5C511.73,270.35,507.34,264.87,503.65,261.84L503.65,261.84z"/>
</g>
</svg>
